<svg width="100" height="66" viewBox="0 0 100 66" fill="none" xmlns="http://www.w3.org/2000/svg">
<path d="M30.2925 13.4709C30.2925 20.4704 25.488 26.1448 19.5615 26.1448C13.6355 26.1448 8.83203 20.4704 8.83203 13.4709C8.83203 6.47186 13.6355 0.797852 19.5615 0.797852C25.488 0.797852 30.2925 6.47186 30.2925 13.4709Z" fill="#FF9900"/>
<path d="M31.7927 35.8202C32.5677 35.3477 33.4252 35.0397 34.3132 34.8927C32.5102 32.3487 31.2327 29.6197 30.4947 26.3537C30.2927 25.1602 28.6587 25.0202 27.4437 26.0102C25.1707 27.8632 22.5192 29.1032 19.5612 29.1032C16.5462 29.1032 13.7727 27.9037 11.5492 25.8962C10.8397 25.2552 9.79419 25.1582 8.97769 25.6567C4.75619 28.2357 1.56069 32.3287 0.16669 37.1902C-0.20781 38.4927 0.0551957 39.9002 0.872196 40.9842C1.6902 42.0672 2.9682 42.7057 4.3252 42.7057H23.6592C25.9737 40.0357 28.7052 37.7047 31.7927 35.8202Z" fill="#FF9900"/>
<path d="M69.708 13.4709C69.708 20.4704 74.512 26.1448 80.4385 26.1448C86.3655 26.1448 91.1685 20.4704 91.1685 13.4709C91.1685 6.47186 86.3655 0.797852 80.4385 0.797852C74.512 0.797852 69.708 6.47186 69.708 13.4709Z" fill="#FF9900"/>
<path d="M68.2075 35.8202C67.4325 35.3477 66.5745 35.0397 65.687 34.8927C67.49 32.3487 68.7675 29.6197 69.5055 26.3537C69.708 25.1602 71.342 25.0202 72.557 26.0102C74.83 27.8632 77.481 29.1032 80.439 29.1032C83.4535 29.1032 86.2275 27.9037 88.4515 25.8962C89.161 25.2552 90.206 25.1582 91.0225 25.6567C95.2445 28.2357 98.4405 32.3287 99.8335 37.1902C100.207 38.4927 99.945 39.9002 99.1285 40.9842C98.31 42.0672 97.0325 42.7057 95.676 42.7057H76.341C74.0265 40.0357 71.2955 37.7047 68.2075 35.8202Z" fill="#FF9900"/>
<path d="M79.2375 56.7255C77.1385 49.3985 72.3776 43.203 66.0746 39.2295C64.8311 38.4465 63.2171 38.573 62.1141 39.545C58.7311 42.5245 54.545 44.298 50 44.298C45.3655 44.298 41.1046 42.455 37.6871 39.3705C36.5961 38.385 34.9905 38.2365 33.736 39.0035C27.2475 42.9655 22.3365 49.2555 20.195 56.726C19.6195 58.73 20.0231 60.89 21.2781 62.557C22.5361 64.222 24.4996 65.2025 26.5856 65.2025H72.847C74.9335 65.2025 76.8985 64.225 78.156 62.557C79.4115 60.8895 79.813 58.7315 79.2375 56.7255Z" fill="#FF9900"/>
<path d="M66.4907 20.2733C66.4907 31.0298 59.1077 39.7509 50.0002 39.7509C40.8932 39.7509 33.5107 31.0298 33.5107 20.2733C33.5107 9.51585 40.8932 0.797852 50.0002 0.797852C59.1082 0.797852 66.4907 9.51635 66.4907 20.2733Z" fill="#FF9900"/>
</svg>
