<svg width="100" height="101" viewBox="0 0 100 101" fill="none" xmlns="http://www.w3.org/2000/svg">
<path d="M50 0.957031C40.111 0.957031 30.444 3.88948 22.2215 9.38355C13.9991 14.8776 7.59043 22.6866 3.80605 31.8229C0.0216643 40.9592 -0.968503 51.0125 0.960758 60.7115C2.89002 70.4106 7.65206 79.3197 14.6447 86.3124C21.6373 93.305 30.5465 98.067 40.2455 99.9963C49.9446 101.926 59.9979 100.935 69.1342 97.151C78.2705 93.3666 86.0794 86.958 91.5735 78.7355C97.0676 70.5131 100 60.8461 100 50.957C100 37.6962 94.7322 24.9785 85.3554 15.6017C75.9785 6.22487 63.2608 0.957031 50 0.957031V0.957031ZM48 71.7904L25 54.2487L32.625 44.3737L46.4167 55.1237L65.2084 33.957L74.5417 42.2904L48 71.7904Z" fill="#FF9900"/>
</svg>
