<svg width="55" height="10" viewBox="0 0 55 10" fill="none" xmlns="http://www.w3.org/2000/svg">
<path d="M1.58908 0H14.4814C15.359 0 16.0705 0.439437 16.0705 0.981489V8.94439C16.0705 9.48644 15.359 9.92588 14.4814 9.92588H1.58908C0.711471 9.92588 0 9.48644 0 8.94439V0.981489C0 0.439437 0.711471 0 1.58908 0Z" fill="url(#paint0_linear_505_552)"/>
<path d="M1.19641 4.96306C1.19641 2.64082 4.25826 0.758301 8.03523 0.758301C11.8122 0.758301 14.874 2.64082 14.874 4.96306C14.874 7.28529 11.8122 9.16781 8.03523 9.16781C4.25826 9.16781 1.19641 7.28529 1.19641 4.96306Z" fill="url(#paint1_linear_505_552)" stroke="#FAF4EF" stroke-width="0.00299513" stroke-miterlimit="10"/>
<path d="M7.49048 2.90385C7.76805 2.75204 7.97502 2.65455 8.29968 2.51855Z" fill="url(#paint2_linear_505_552)"/>
<path d="M7.49048 2.90385C7.76805 2.75204 7.97502 2.65455 8.29968 2.51855" stroke="#FAF4EF" stroke-width="0.00299513" stroke-miterlimit="10"/>
<path d="M5.18713 4.58775C5.46806 4.23797 5.81445 3.96495 6.24111 3.63477Z" fill="url(#paint3_linear_505_552)"/>
<path d="M5.18713 4.58775C5.46806 4.23797 5.81445 3.96495 6.24111 3.63477" stroke="#FAF4EF" stroke-width="0.00299513" stroke-miterlimit="10"/>
<path d="M4.03372 8.36192C4.03372 8.36192 3.7999 7.30955 4.40173 5.95068Z" fill="url(#paint4_linear_505_552)"/>
<path d="M4.03372 8.36192C4.03372 8.36192 3.7999 7.30955 4.40173 5.95068" stroke="#FAF4EF" stroke-width="0.00299513" stroke-miterlimit="10"/>
<path d="M7.89661 7.9406C9.59598 7.64996 11.5181 7.22698 12.9076 6.4458Z" fill="url(#paint5_linear_505_552)"/>
<path d="M7.89661 7.9406C9.59598 7.64996 11.5181 7.22698 12.9076 6.4458" stroke="#FAF4EF" stroke-width="0.00299513" stroke-miterlimit="10"/>
<path d="M4.03369 8.36205C4.03369 8.36205 4.86345 8.32084 6.05128 8.17139Z" fill="url(#paint6_linear_505_552)"/>
<path d="M4.03369 8.36205C4.03369 8.36205 4.86345 8.32084 6.05128 8.17139" stroke="#FAF4EF" stroke-width="0.00299513" stroke-miterlimit="10"/>
<path d="M8.99219 2.62109C9.13265 2.75077 9.19404 2.75648 9.3404 2.90915C9.3404 2.90915 11.7962 5.68995 11.6711 7.17866C11.6711 7.17866 11.728 8.12667 11.421 8.63227" fill="url(#paint7_linear_505_552)"/>
<path d="M8.99219 2.62109C9.13265 2.75077 9.19404 2.75648 9.3404 2.90915C9.3404 2.90915 11.7962 5.68995 11.6711 7.17866C11.6711 7.17866 11.728 8.12667 11.421 8.63227" stroke="#FAF4EF" stroke-width="0.00299513" stroke-miterlimit="10"/>
<path d="M4.38354 2.62083C4.46838 2.03018 4.74405 1.50288 5.29303 1.11823C5.29303 1.11823 6.58848 0.458372 8.57123 2.10143" fill="url(#paint8_linear_505_552)"/>
<path d="M4.38354 2.62083C4.46838 2.03018 4.74405 1.50288 5.29303 1.11823C5.29303 1.11823 6.58848 0.458372 8.57123 2.10143" stroke="#FAF4EF" stroke-width="0.00299513" stroke-miterlimit="10"/>
<path d="M4.53709 4.54094C4.52012 4.46366 4.50668 4.46742 4.49716 4.39078C4.49716 4.39078 4.39421 4.01995 4.38354 3.4585" fill="url(#paint9_linear_505_552)"/>
<path d="M4.53709 4.54094C4.52012 4.46366 4.50668 4.46742 4.49716 4.39078C4.49716 4.39078 4.39421 4.01995 4.38354 3.4585" stroke="#FAF4EF" stroke-width="0.00299513" stroke-miterlimit="10"/>
<path d="M6.43303 7.52708C5.97276 7.07501 5.46635 6.56605 5.08459 5.95068Z" fill="url(#paint10_linear_505_552)"/>
<path d="M6.43303 7.52708C5.97276 7.07501 5.46635 6.56605 5.08459 5.95068" stroke="#FAF4EF" stroke-width="0.00299513" stroke-miterlimit="10"/>
<path d="M8.60144 9.1589C8.60144 9.1589 8.12228 8.90441 7.49048 8.46289Z" fill="url(#paint11_linear_505_552)"/>
<path d="M8.60144 9.1589C8.60144 9.1589 8.12228 8.90441 7.49048 8.46289" stroke="#FAF4EF" stroke-width="0.00299513" stroke-miterlimit="10"/>
<path d="M8.99219 2.62109C9.37095 2.9619 10.0894 3.24491 11.4481 3.2981L11.7621 3.89472L12.6622 2.78928L13.0599 3.98522L13.2797 3.25472L13.5309 3.85593L13.6984 3.40987L14.0124 3.83007L14.1589 3.51978L14.4624 3.55855" fill="url(#paint12_linear_505_552)"/>
<path d="M8.99219 2.62109C9.37095 2.9619 10.0894 3.24491 11.4481 3.2981L11.7621 3.89472L12.6622 2.78928L13.0599 3.98522L13.2797 3.25472L13.5309 3.85593L13.6984 3.40987L14.0124 3.83007L14.1589 3.51978L14.4624 3.55855" stroke="#FAF4EF" stroke-width="0.00299513" stroke-miterlimit="10"/>
<path d="M7.76648 3.43018C9.61086 3.7885 11.458 4.40412 12.9076 5.76625Z" fill="url(#paint13_linear_505_552)"/>
<path d="M7.76648 3.43018C9.61086 3.7885 11.458 4.40412 12.9076 5.76625" stroke="#FAF4EF" stroke-width="0.00299513" stroke-miterlimit="10"/>
<path d="M5.0614 3.12256C5.41187 3.14142 5.67259 3.14258 6.05126 3.18371Z" fill="url(#paint14_linear_505_552)"/>
<path d="M5.0614 3.12256C5.41187 3.14142 5.67259 3.14258 6.05126 3.18371" stroke="#FAF4EF" stroke-width="0.00299513" stroke-miterlimit="10"/>
<path d="M6.00232 8.03322C6.00232 7.71014 6.42634 7.44824 6.9494 7.44824C7.47248 7.44824 7.8965 7.71014 7.8965 8.03322C7.8965 8.35628 7.47248 8.61819 6.9494 8.61819C6.42634 8.61819 6.00232 8.35628 6.00232 8.03322Z" fill="url(#paint15_linear_505_552)" stroke="#FAF4EF" stroke-width="0.00299513" stroke-miterlimit="10"/>
<path d="M4.3835 3.45856C4.00909 3.45856 3.70557 3.27109 3.70557 3.03983C3.70557 2.80857 4.00909 2.62109 4.3835 2.62109C4.75793 2.62109 5.06146 2.80857 5.06146 3.03983C5.06146 3.27109 4.75793 3.45856 4.3835 3.45856Z" fill="url(#paint16_linear_505_552)" stroke="#FAF4EF" stroke-width="0.00299513" stroke-miterlimit="10"/>
<path d="M8.24536 2.36653C8.24536 2.19512 8.47036 2.05615 8.74788 2.05615C9.02543 2.05615 9.2504 2.19512 9.2504 2.36653C9.2504 2.53796 9.02543 2.67693 8.74788 2.67693C8.47036 2.67693 8.24536 2.53796 8.24536 2.36653Z" fill="url(#paint17_linear_505_552)" stroke="#FAF4EF" stroke-width="0.00299513" stroke-miterlimit="10"/>
<path d="M6.00232 3.29772C6.00232 2.99683 6.39721 2.75293 6.88436 2.75293C7.37151 2.75293 7.7664 2.99683 7.7664 3.29772C7.7664 3.59861 7.37151 3.84251 6.88436 3.84251C6.39721 3.84251 6.00232 3.59861 6.00232 3.29772Z" fill="url(#paint18_linear_505_552)" stroke="#FAF4EF" stroke-width="0.00299513" stroke-miterlimit="10"/>
<path d="M6.37781 3.29775C6.37781 3.12494 6.6046 2.98486 6.88438 2.98486C7.16416 2.98486 7.39095 3.12494 7.39095 3.29775C7.39095 3.47055 7.16416 3.61063 6.88438 3.61063C6.6046 3.61063 6.37781 3.47055 6.37781 3.29775Z" fill="url(#paint19_linear_505_552)" stroke="#FAF4EF" stroke-width="0.00299513" stroke-miterlimit="10"/>
<path d="M4.40169 5.95109C3.95762 5.84644 3.64221 5.5809 3.64221 5.26987C3.64221 4.86734 4.17052 4.54102 4.82226 4.54102C5.474 4.54102 6.00233 4.86734 6.00233 5.26987C6.00233 5.67241 5.474 5.99873 4.82226 5.99873C4.6741 5.99873 4.53233 5.98187 4.40169 5.95109Z" fill="url(#paint20_linear_505_552)" stroke="#FAF4EF" stroke-width="0.00299513" stroke-miterlimit="10"/>
<path d="M12.5801 6.126C12.5801 5.88949 12.8905 5.69775 13.2734 5.69775C13.6564 5.69775 13.9668 5.88949 13.9668 6.126C13.9668 6.36253 13.6564 6.55425 13.2734 6.55425C12.8905 6.55425 12.5801 6.36253 12.5801 6.126Z" fill="url(#paint21_linear_505_552)" stroke="#FAF4EF" stroke-width="0.00299513" stroke-miterlimit="10"/>
<path d="M3.68279 3.05097L3.30332 3.07644L3.09709 2.84717L2.99811 3.47895L2.65163 2.94397L2.5279 3.62161L2.21445 3.21401L2.11544 3.55537L1.9422 3.40253L1.66174 3.47895" fill="url(#paint22_linear_505_552)"/>
<path d="M3.68279 3.05097L3.30332 3.07644L3.09709 2.84717L2.99811 3.47895L2.65163 2.94397L2.5279 3.62161L2.21445 3.21401L2.11544 3.55537L1.9422 3.40253L1.66174 3.47895" stroke="#FAF4EF" stroke-width="0.00299513" stroke-miterlimit="10"/>
<path d="M9.16577 2.20045L9.73458 2.00928L9.75131 1.54945L10.4205 2.29346L10.1696 1.52879L10.7802 2.07645L10.6296 1.54945L11.1483 1.83878L11.0646 1.49262L11.324 1.66828L11.3407 1.49262L11.6167 1.40479" fill="url(#paint23_linear_505_552)"/>
<path d="M9.16577 2.20045L9.73458 2.00928L9.75131 1.54945L10.4205 2.29346L10.1696 1.52879L10.7802 2.07645L10.6296 1.54945L11.1483 1.83878L11.0646 1.49262L11.324 1.66828L11.3407 1.49262L11.6167 1.40479" stroke="#FAF4EF" stroke-width="0.00299513" stroke-miterlimit="10"/>
<path d="M13.8794 5.9194L13.7565 5.20948L14.3348 5.90601L14.1107 5.22288L14.3926 5.4238L14.2264 5.0041L14.501 5.16929L14.4287 4.87462L14.6167 4.96391L14.5733 4.78086L14.8408 4.62012" fill="url(#paint24_linear_505_552)"/>
<path d="M13.8794 5.9194L13.7565 5.20948L14.3348 5.90601L14.1107 5.22288L14.3926 5.4238L14.2264 5.0041L14.501 5.16929L14.4287 4.87462L14.6167 4.96391L14.5733 4.78086L14.8408 4.62012" stroke="#FAF4EF" stroke-width="0.00299513" stroke-miterlimit="10"/>
<path d="M13.734 6.45172L13.5935 6.75942L14.1683 6.39648L13.8873 6.82253L14.245 6.6963" fill="url(#paint25_linear_505_552)"/>
<path d="M13.734 6.45172L13.5935 6.75942L14.1683 6.39648L13.8873 6.82253L14.245 6.6963" stroke="#FAF4EF" stroke-width="0.00299513" stroke-miterlimit="10"/>
<path d="M1.58908 0H14.4814C15.359 0 16.0705 0.439437 16.0705 0.981489V8.94439C16.0705 9.48644 15.359 9.92588 14.4814 9.92588H1.58908C0.711471 9.92588 0 9.48644 0 8.94439V0.981489C0 0.439437 0.711471 0 1.58908 0Z" fill="url(#paint26_linear_505_552)"/>
<path d="M1.19641 4.96306C1.19641 2.64082 4.25826 0.758301 8.03523 0.758301C11.8122 0.758301 14.874 2.64082 14.874 4.96306C14.874 7.28529 11.8122 9.16781 8.03523 9.16781C4.25826 9.16781 1.19641 7.28529 1.19641 4.96306Z" fill="url(#paint27_linear_505_552)" stroke="#FAF4EF" stroke-width="0.00299513" stroke-miterlimit="10"/>
<path d="M7.49048 2.90385C7.76805 2.75204 7.97502 2.65455 8.29968 2.51855Z" fill="url(#paint28_linear_505_552)"/>
<path d="M7.49048 2.90385C7.76805 2.75204 7.97502 2.65455 8.29968 2.51855" stroke="#FAF4EF" stroke-width="0.00299513" stroke-miterlimit="10"/>
<path d="M5.18713 4.58775C5.46806 4.23797 5.81445 3.96495 6.24111 3.63477Z" fill="url(#paint29_linear_505_552)"/>
<path d="M5.18713 4.58775C5.46806 4.23797 5.81445 3.96495 6.24111 3.63477" stroke="#FAF4EF" stroke-width="0.00299513" stroke-miterlimit="10"/>
<path d="M4.03372 8.36192C4.03372 8.36192 3.7999 7.30955 4.40173 5.95068Z" fill="url(#paint30_linear_505_552)"/>
<path d="M4.03372 8.36192C4.03372 8.36192 3.7999 7.30955 4.40173 5.95068" stroke="#FAF4EF" stroke-width="0.00299513" stroke-miterlimit="10"/>
<path d="M7.89661 7.9406C9.59598 7.64996 11.5181 7.22698 12.9076 6.4458Z" fill="url(#paint31_linear_505_552)"/>
<path d="M7.89661 7.9406C9.59598 7.64996 11.5181 7.22698 12.9076 6.4458" stroke="#FAF4EF" stroke-width="0.00299513" stroke-miterlimit="10"/>
<path d="M4.03369 8.36205C4.03369 8.36205 4.86345 8.32084 6.05128 8.17139Z" fill="url(#paint32_linear_505_552)"/>
<path d="M4.03369 8.36205C4.03369 8.36205 4.86345 8.32084 6.05128 8.17139" stroke="#FAF4EF" stroke-width="0.00299513" stroke-miterlimit="10"/>
<path d="M8.99219 2.62109C9.13265 2.75077 9.19404 2.75648 9.3404 2.90915C9.3404 2.90915 11.7962 5.68995 11.6711 7.17866C11.6711 7.17866 11.728 8.12667 11.421 8.63227" fill="url(#paint33_linear_505_552)"/>
<path d="M8.99219 2.62109C9.13265 2.75077 9.19404 2.75648 9.3404 2.90915C9.3404 2.90915 11.7962 5.68995 11.6711 7.17866C11.6711 7.17866 11.728 8.12667 11.421 8.63227" stroke="#FAF4EF" stroke-width="0.00299513" stroke-miterlimit="10"/>
<path d="M4.38354 2.62083C4.46838 2.03018 4.74405 1.50288 5.29303 1.11823C5.29303 1.11823 6.58848 0.458372 8.57123 2.10143" fill="url(#paint34_linear_505_552)"/>
<path d="M4.38354 2.62083C4.46838 2.03018 4.74405 1.50288 5.29303 1.11823C5.29303 1.11823 6.58848 0.458372 8.57123 2.10143" stroke="#FAF4EF" stroke-width="0.00299513" stroke-miterlimit="10"/>
<path d="M4.53709 4.54094C4.52012 4.46366 4.50668 4.46742 4.49716 4.39078C4.49716 4.39078 4.39421 4.01995 4.38354 3.4585" fill="url(#paint35_linear_505_552)"/>
<path d="M4.53709 4.54094C4.52012 4.46366 4.50668 4.46742 4.49716 4.39078C4.49716 4.39078 4.39421 4.01995 4.38354 3.4585" stroke="#FAF4EF" stroke-width="0.00299513" stroke-miterlimit="10"/>
<path d="M6.43303 7.52708C5.97276 7.07501 5.46635 6.56605 5.08459 5.95068Z" fill="url(#paint36_linear_505_552)"/>
<path d="M6.43303 7.52708C5.97276 7.07501 5.46635 6.56605 5.08459 5.95068" stroke="#FAF4EF" stroke-width="0.00299513" stroke-miterlimit="10"/>
<path d="M8.60144 9.1589C8.60144 9.1589 8.12228 8.90441 7.49048 8.46289Z" fill="url(#paint37_linear_505_552)"/>
<path d="M8.60144 9.1589C8.60144 9.1589 8.12228 8.90441 7.49048 8.46289" stroke="#FAF4EF" stroke-width="0.00299513" stroke-miterlimit="10"/>
<path d="M8.99219 2.62109C9.37095 2.9619 10.0894 3.24491 11.4481 3.2981L11.7621 3.89472L12.6622 2.78928L13.0599 3.98522L13.2797 3.25472L13.5309 3.85593L13.6984 3.40987L14.0124 3.83007L14.1589 3.51978L14.4624 3.55855" fill="url(#paint38_linear_505_552)"/>
<path d="M8.99219 2.62109C9.37095 2.9619 10.0894 3.24491 11.4481 3.2981L11.7621 3.89472L12.6622 2.78928L13.0599 3.98522L13.2797 3.25472L13.5309 3.85593L13.6984 3.40987L14.0124 3.83007L14.1589 3.51978L14.4624 3.55855" stroke="#FAF4EF" stroke-width="0.00299513" stroke-miterlimit="10"/>
<path d="M7.76648 3.43018C9.61086 3.7885 11.458 4.40412 12.9076 5.76625Z" fill="url(#paint39_linear_505_552)"/>
<path d="M7.76648 3.43018C9.61086 3.7885 11.458 4.40412 12.9076 5.76625" stroke="#FAF4EF" stroke-width="0.00299513" stroke-miterlimit="10"/>
<path d="M5.0614 3.12256C5.41187 3.14142 5.67259 3.14258 6.05126 3.18371Z" fill="url(#paint40_linear_505_552)"/>
<path d="M5.0614 3.12256C5.41187 3.14142 5.67259 3.14258 6.05126 3.18371" stroke="#FAF4EF" stroke-width="0.00299513" stroke-miterlimit="10"/>
<path d="M6.00232 8.03322C6.00232 7.71014 6.42634 7.44824 6.9494 7.44824C7.47248 7.44824 7.8965 7.71014 7.8965 8.03322C7.8965 8.35628 7.47248 8.61819 6.9494 8.61819C6.42634 8.61819 6.00232 8.35628 6.00232 8.03322Z" fill="url(#paint41_linear_505_552)" stroke="#FAF4EF" stroke-width="0.00299513" stroke-miterlimit="10"/>
<path d="M4.3835 3.45856C4.00909 3.45856 3.70557 3.27109 3.70557 3.03983C3.70557 2.80857 4.00909 2.62109 4.3835 2.62109C4.75793 2.62109 5.06146 2.80857 5.06146 3.03983C5.06146 3.27109 4.75793 3.45856 4.3835 3.45856Z" fill="url(#paint42_linear_505_552)" stroke="#FAF4EF" stroke-width="0.00299513" stroke-miterlimit="10"/>
<path d="M8.24536 2.36653C8.24536 2.19512 8.47036 2.05615 8.74788 2.05615C9.02543 2.05615 9.2504 2.19512 9.2504 2.36653C9.2504 2.53796 9.02543 2.67693 8.74788 2.67693C8.47036 2.67693 8.24536 2.53796 8.24536 2.36653Z" fill="url(#paint43_linear_505_552)" stroke="#FAF4EF" stroke-width="0.00299513" stroke-miterlimit="10"/>
<path d="M6.00232 3.29772C6.00232 2.99683 6.39721 2.75293 6.88436 2.75293C7.37151 2.75293 7.7664 2.99683 7.7664 3.29772C7.7664 3.59861 7.37151 3.84251 6.88436 3.84251C6.39721 3.84251 6.00232 3.59861 6.00232 3.29772Z" fill="url(#paint44_linear_505_552)" stroke="#FAF4EF" stroke-width="0.00299513" stroke-miterlimit="10"/>
<path d="M6.37781 3.29775C6.37781 3.12494 6.6046 2.98486 6.88438 2.98486C7.16416 2.98486 7.39095 3.12494 7.39095 3.29775C7.39095 3.47055 7.16416 3.61063 6.88438 3.61063C6.6046 3.61063 6.37781 3.47055 6.37781 3.29775Z" fill="url(#paint45_linear_505_552)" stroke="#FAF4EF" stroke-width="0.00299513" stroke-miterlimit="10"/>
<path d="M4.40169 5.95109C3.95762 5.84644 3.64221 5.5809 3.64221 5.26987C3.64221 4.86734 4.17052 4.54102 4.82226 4.54102C5.474 4.54102 6.00233 4.86734 6.00233 5.26987C6.00233 5.67241 5.474 5.99873 4.82226 5.99873C4.6741 5.99873 4.53233 5.98187 4.40169 5.95109Z" fill="url(#paint46_linear_505_552)" stroke="#FAF4EF" stroke-width="0.00299513" stroke-miterlimit="10"/>
<path d="M12.5801 6.126C12.5801 5.88949 12.8905 5.69775 13.2734 5.69775C13.6564 5.69775 13.9668 5.88949 13.9668 6.126C13.9668 6.36253 13.6564 6.55425 13.2734 6.55425C12.8905 6.55425 12.5801 6.36253 12.5801 6.126Z" fill="url(#paint47_linear_505_552)" stroke="#FAF4EF" stroke-width="0.00299513" stroke-miterlimit="10"/>
<path d="M3.68279 3.05097L3.30332 3.07644L3.09709 2.84717L2.99811 3.47895L2.65163 2.94397L2.5279 3.62161L2.21445 3.21401L2.11544 3.55537L1.9422 3.40253L1.66174 3.47895" fill="url(#paint48_linear_505_552)"/>
<path d="M3.68279 3.05097L3.30332 3.07644L3.09709 2.84717L2.99811 3.47895L2.65163 2.94397L2.5279 3.62161L2.21445 3.21401L2.11544 3.55537L1.9422 3.40253L1.66174 3.47895" stroke="#FAF4EF" stroke-width="0.00299513" stroke-miterlimit="10"/>
<path d="M9.16577 2.20045L9.73458 2.00928L9.75131 1.54945L10.4205 2.29346L10.1696 1.52879L10.7802 2.07645L10.6296 1.54945L11.1483 1.83878L11.0646 1.49262L11.324 1.66828L11.3407 1.49262L11.6167 1.40479" fill="url(#paint49_linear_505_552)"/>
<path d="M9.16577 2.20045L9.73458 2.00928L9.75131 1.54945L10.4205 2.29346L10.1696 1.52879L10.7802 2.07645L10.6296 1.54945L11.1483 1.83878L11.0646 1.49262L11.324 1.66828L11.3407 1.49262L11.6167 1.40479" stroke="#FAF4EF" stroke-width="0.00299513" stroke-miterlimit="10"/>
<path d="M13.8794 5.9194L13.7565 5.20948L14.3348 5.90601L14.1107 5.22288L14.3926 5.4238L14.2264 5.0041L14.501 5.16929L14.4287 4.87462L14.6167 4.96391L14.5733 4.78086L14.8408 4.62012" fill="url(#paint50_linear_505_552)"/>
<path d="M13.8794 5.9194L13.7565 5.20948L14.3348 5.90601L14.1107 5.22288L14.3926 5.4238L14.2264 5.0041L14.501 5.16929L14.4287 4.87462L14.6167 4.96391L14.5733 4.78086L14.8408 4.62012" stroke="#FAF4EF" stroke-width="0.00299513" stroke-miterlimit="10"/>
<path d="M13.734 6.45172L13.5935 6.75942L14.1683 6.39648L13.8873 6.82253L14.245 6.6963" fill="url(#paint51_linear_505_552)"/>
<path d="M13.734 6.45172L13.5935 6.75942L14.1683 6.39648L13.8873 6.82253L14.245 6.6963" stroke="#FAF4EF" stroke-width="0.00299513" stroke-miterlimit="10"/>
<path d="M1.58908 0H14.4814C15.359 0 16.0705 0.439437 16.0705 0.981489V8.94439C16.0705 9.48644 15.359 9.92588 14.4814 9.92588H1.58908C0.711471 9.92588 0 9.48644 0 8.94439V0.981489C0 0.439437 0.711471 0 1.58908 0Z" fill="url(#paint52_linear_505_552)"/>
<path d="M1.19641 4.96306C1.19641 2.64082 4.25826 0.758301 8.03523 0.758301C11.8122 0.758301 14.874 2.64082 14.874 4.96306C14.874 7.28529 11.8122 9.16781 8.03523 9.16781C4.25826 9.16781 1.19641 7.28529 1.19641 4.96306Z" stroke="#FAF4EF" stroke-width="0.0053064" stroke-miterlimit="10"/>
<path d="M7.49048 2.90385C7.76805 2.75204 7.97502 2.65455 8.29968 2.51855" stroke="#FAF4EF" stroke-width="0.0053064" stroke-miterlimit="10"/>
<path d="M5.18713 4.58775C5.46806 4.23797 5.81445 3.96495 6.24111 3.63477" stroke="#FAF4EF" stroke-width="0.0053064" stroke-miterlimit="10"/>
<path d="M4.03372 8.36192C4.03372 8.36192 3.7999 7.30955 4.40173 5.95068" stroke="#FAF4EF" stroke-width="0.0053064" stroke-miterlimit="10"/>
<path d="M7.89661 7.9406C9.59598 7.64996 11.5181 7.22698 12.9076 6.4458" stroke="#FAF4EF" stroke-width="0.0053064" stroke-miterlimit="10"/>
<path d="M4.03369 8.36205C4.03369 8.36205 4.86345 8.32084 6.05128 8.17139" stroke="#FAF4EF" stroke-width="0.0053064" stroke-miterlimit="10"/>
<path d="M8.99219 2.62109C9.13265 2.75077 9.19404 2.75648 9.3404 2.90915C9.3404 2.90915 11.7962 5.68995 11.6711 7.17866C11.6711 7.17866 11.728 8.12667 11.421 8.63227" stroke="#FAF4EF" stroke-width="0.0053064" stroke-miterlimit="10"/>
<path d="M4.38354 2.62083C4.46838 2.03018 4.74405 1.50288 5.29303 1.11823C5.29303 1.11823 6.58848 0.458372 8.57123 2.10143" stroke="#FAF4EF" stroke-width="0.0053064" stroke-miterlimit="10"/>
<path d="M4.53709 4.54094C4.52012 4.46366 4.50668 4.46742 4.49716 4.39078C4.49716 4.39078 4.39421 4.01995 4.38354 3.4585" stroke="#FAF4EF" stroke-width="0.0053064" stroke-miterlimit="10"/>
<path d="M6.43303 7.52708C5.97276 7.07501 5.46635 6.56605 5.08459 5.95068" stroke="#FAF4EF" stroke-width="0.0053064" stroke-miterlimit="10"/>
<path d="M8.60144 9.1589C8.60144 9.1589 8.12228 8.90441 7.49048 8.46289" stroke="#FAF4EF" stroke-width="0.0053064" stroke-miterlimit="10"/>
<path d="M7.76648 3.43018C9.61086 3.7885 11.458 4.40412 12.9076 5.76625" stroke="#FAF4EF" stroke-width="0.0053064" stroke-miterlimit="10"/>
<path d="M5.0614 3.12256C5.41187 3.14142 5.67259 3.14258 6.05126 3.18371" stroke="#FAF4EF" stroke-width="0.0053064" stroke-miterlimit="10"/>
<path d="M6.00232 8.03322C6.00232 7.71014 6.42634 7.44824 6.9494 7.44824C7.47248 7.44824 7.8965 7.71014 7.8965 8.03322C7.8965 8.35628 7.47248 8.61819 6.9494 8.61819C6.42634 8.61819 6.00232 8.35628 6.00232 8.03322Z" stroke="#FAF4EF" stroke-width="0.0053064" stroke-miterlimit="10"/>
<path d="M4.3835 3.45856C4.00909 3.45856 3.70557 3.27109 3.70557 3.03983C3.70557 2.80857 4.00909 2.62109 4.3835 2.62109C4.75793 2.62109 5.06146 2.80857 5.06146 3.03983C5.06146 3.27109 4.75793 3.45856 4.3835 3.45856Z" stroke="#FAF4EF" stroke-width="0.0053064" stroke-miterlimit="10"/>
<path d="M8.24536 2.36653C8.24536 2.19512 8.47036 2.05615 8.74788 2.05615C9.02543 2.05615 9.2504 2.19512 9.2504 2.36653C9.2504 2.53796 9.02543 2.67693 8.74788 2.67693C8.47036 2.67693 8.24536 2.53796 8.24536 2.36653Z" stroke="#FAF4EF" stroke-width="0.0053064" stroke-miterlimit="10"/>
<path d="M6.00232 3.29772C6.00232 2.99683 6.39721 2.75293 6.88436 2.75293C7.37151 2.75293 7.7664 2.99683 7.7664 3.29772C7.7664 3.59861 7.37151 3.84251 6.88436 3.84251C6.39721 3.84251 6.00232 3.59861 6.00232 3.29772Z" stroke="#FAF4EF" stroke-width="0.0053064" stroke-miterlimit="10"/>
<path d="M4.40169 5.95109C3.95762 5.84644 3.64221 5.5809 3.64221 5.26987C3.64221 4.86734 4.17052 4.54102 4.82226 4.54102C5.474 4.54102 6.00233 4.86734 6.00233 5.26987C6.00233 5.67241 5.474 5.99873 4.82226 5.99873C4.6741 5.99873 4.53233 5.98187 4.40169 5.95109Z" stroke="#FAF4EF" stroke-width="0.0053064" stroke-miterlimit="10"/>
<path d="M12.5801 6.126C12.5801 5.88949 12.8905 5.69775 13.2734 5.69775C13.6564 5.69775 13.9668 5.88949 13.9668 6.126C13.9668 6.36253 13.6564 6.55425 13.2734 6.55425C12.8905 6.55425 12.5801 6.36253 12.5801 6.126Z" stroke="#FAF4EF" stroke-width="0.0053064" stroke-miterlimit="10"/>
<path d="M20.6785 3.47305H19.8122V3.35239C19.8122 3.23 19.7657 3.12421 19.6721 3.03504C19.5788 2.94586 19.4216 2.90127 19.2008 2.90127C19.0819 2.90127 18.9857 2.91525 18.912 2.94324C18.8384 2.97121 18.779 3.00617 18.7337 3.04814C18.6884 3.0936 18.6573 3.14519 18.6403 3.20288C18.6233 3.26059 18.6148 3.32092 18.6148 3.38387C18.6148 3.4573 18.619 3.51851 18.6275 3.56746C18.636 3.61642 18.6573 3.66013 18.6912 3.6986C18.7252 3.73707 18.7747 3.77029 18.8399 3.79826C18.905 3.82625 18.9941 3.85422 19.1074 3.88219L19.7697 4.04482C19.9623 4.09028 20.1179 4.1436 20.237 4.2048C20.3559 4.26601 20.4492 4.33682 20.5172 4.41726C20.5795 4.50117 20.6219 4.59648 20.6445 4.70314C20.6673 4.80979 20.6785 4.93132 20.6785 5.0677C20.6785 5.22507 20.6532 5.37108 20.6021 5.50571C20.5512 5.64035 20.4691 5.75487 20.3559 5.84931C20.237 5.94722 20.0812 6.02416 19.8886 6.0801C19.6963 6.13606 19.4613 6.16404 19.1838 6.16404C18.9743 6.16404 18.779 6.14131 18.5978 6.09584C18.4166 6.05038 18.2609 5.98743 18.1307 5.907C18.0005 5.82657 17.8971 5.73302 17.8207 5.62635C17.7443 5.51971 17.7061 5.40342 17.7061 5.27753V5.0782H18.5723V5.24605C18.5723 5.34398 18.619 5.43228 18.7125 5.51095C18.8059 5.58964 18.963 5.62899 19.1838 5.62899C19.331 5.62899 19.4458 5.61587 19.5277 5.58964C19.6098 5.56342 19.6735 5.52582 19.7189 5.47687C19.764 5.42789 19.791 5.36933 19.7997 5.30114C19.8081 5.23295 19.8122 5.15688 19.8122 5.07294C19.8122 4.97503 19.8067 4.89459 19.7953 4.83164C19.7839 4.7687 19.7613 4.71799 19.7273 4.67952C19.6876 4.64107 19.6354 4.60958 19.5704 4.5851C19.5051 4.56063 19.4188 4.5344 19.3112 4.50643L18.6912 4.34905C18.3175 4.25463 18.067 4.12961 17.9396 3.97399C17.8122 3.81837 17.7485 3.62341 17.7485 3.38911C17.7485 3.24922 17.7797 3.11633 17.8419 2.99045C17.9042 2.86455 17.9976 2.75614 18.1222 2.66522C18.2411 2.5743 18.3926 2.50172 18.5766 2.44752C18.7606 2.39333 18.98 2.36621 19.2348 2.36621C19.4499 2.36621 19.6468 2.39069 19.825 2.43966C20.0034 2.48862 20.1576 2.55331 20.2879 2.63373C20.5482 2.8016 20.6785 2.99394 20.6785 3.21076V3.47305Z" fill="url(#paint53_radial_505_552)"/>
<path d="M22.1031 3.27896C22.1031 3.12858 22.1456 2.99569 22.2307 2.88029C22.3156 2.76487 22.4287 2.66871 22.5704 2.59178C22.7062 2.51834 22.8604 2.46239 23.0331 2.42392C23.2058 2.38545 23.3799 2.36621 23.5556 2.36621C23.7311 2.36621 23.9051 2.38545 24.0779 2.42392C24.2506 2.46239 24.4075 2.51834 24.5492 2.59178C24.685 2.66871 24.7954 2.76487 24.8803 2.88029C24.9654 2.99569 25.0078 3.12858 25.0078 3.27896V5.25129C25.0078 5.40867 24.9654 5.54331 24.8803 5.65521C24.7954 5.76712 24.685 5.85979 24.5492 5.93322C24.4075 6.01017 24.2506 6.06787 24.0779 6.10633C23.9051 6.1448 23.7311 6.16404 23.5556 6.16404C23.3799 6.16404 23.2058 6.1448 23.0331 6.10633C22.8604 6.06787 22.7062 6.01017 22.5704 5.93322C22.4287 5.85979 22.3156 5.76712 22.2307 5.65521C22.1456 5.54331 22.1031 5.40867 22.1031 5.25129V3.27896ZM22.9695 5.25129C22.9695 5.38069 23.0274 5.47599 23.1435 5.53718C23.2597 5.59838 23.3971 5.62899 23.5556 5.62899C23.7139 5.62899 23.8513 5.59838 23.9674 5.53718C24.0836 5.47599 24.1415 5.38069 24.1415 5.25129V3.27896C24.1415 3.14956 24.0836 3.05427 23.9674 2.99307C23.8513 2.93187 23.7139 2.90127 23.5556 2.90127C23.3971 2.90127 23.2597 2.93187 23.1435 2.99307C23.0274 3.05427 22.9695 3.14956 22.9695 3.27896V5.25129Z" fill="url(#paint54_radial_505_552)"/>
<path d="M26.6023 7.5596V2.39746H30.3782V2.90497L27.4686 2.90104V4.03408H28.9633V4.53766H27.4686V7.5596H26.6023Z" fill="url(#paint55_radial_505_552)"/>
<path d="M31.1439 6.13232V2.90104H30.1418V2.39746H33.0125V2.90104H32.0102V6.13232H31.1439Z" fill="url(#paint56_radial_505_552)"/>
<path d="M35.5073 4.82617L35.0827 3.47281H35.0656L34.641 4.82617H35.5073ZM33.3669 6.13232L34.7174 2.39746H35.4393L36.7898 6.13232H35.9235L35.6686 5.32975H34.4881L34.2333 6.13232H33.3669Z" fill="url(#paint57_radial_505_552)"/>
<path d="M42.223 2.39746L41.3229 6.13232H40.5075L39.8451 3.70885H39.828L39.1741 6.13232H38.3587L37.4586 2.39746H38.3758L38.8088 4.76846H38.826L39.5054 2.39746H40.1677L40.8728 4.82617H40.8896L41.3058 2.39746H42.223Z" fill="url(#paint58_radial_505_552)"/>
<path d="M45.0915 4.82617L44.6669 3.47281H44.6501L44.2252 4.82617H45.0915ZM42.9514 6.13232L44.3019 2.39746H45.0238L46.374 6.13232H45.5077L45.2531 5.32975H44.0723L43.8177 6.13232H42.9514Z" fill="url(#paint59_radial_505_552)"/>
<path d="M48.4951 2.90104V4.06557H48.9877C49.1405 4.06557 49.2624 4.05245 49.353 4.02622C49.4435 4 49.5143 3.9624 49.5654 3.91344C49.6105 3.86447 49.6418 3.80416 49.6587 3.73246C49.6758 3.66077 49.6843 3.57771 49.6843 3.4833C49.6843 3.38888 49.6758 3.30582 49.6587 3.23413C49.6418 3.16245 49.6078 3.10037 49.5567 3.04791C49.4493 2.95 49.2455 2.90104 48.9452 2.90104H48.4951ZM47.629 6.13232V2.39746H49.0217C50.0409 2.39746 50.5506 2.76289 50.5506 3.4938C50.5506 3.71411 50.4954 3.9012 50.3849 4.05507C50.2745 4.20894 50.0806 4.33309 49.8031 4.42751L50.7374 6.13232H49.82L49.0132 4.53766H48.4951V6.13232H47.629Z" fill="url(#paint60_radial_505_552)"/>
<path d="M52.077 6.13232V2.39746H54.6589V2.90104H52.9433V3.99736H54.4383V4.50094H52.9433V5.59727H54.6589V6.13232H52.077Z" fill="url(#paint61_radial_505_552)"/>
<defs>
<linearGradient id="paint0_linear_505_552" x1="0" y1="4.96294" x2="16.0704" y2="4.96294" gradientUnits="userSpaceOnUse">
<stop stop-color="#594B21"/>
<stop offset="1" stop-color="#FFD456"/>
</linearGradient>
<linearGradient id="paint1_linear_505_552" x1="1.19641" y1="4.96306" x2="14.8741" y2="4.96306" gradientUnits="userSpaceOnUse">
<stop stop-color="#957414"/>
<stop offset="1" stop-color="#FFD456"/>
</linearGradient>
<linearGradient id="paint2_linear_505_552" x1="7.4904" y1="2.71119" x2="8.2996" y2="2.71119" gradientUnits="userSpaceOnUse">
<stop stop-color="#957414"/>
<stop offset="1" stop-color="#FFD456"/>
</linearGradient>
<linearGradient id="paint3_linear_505_552" x1="5.18716" y1="4.11125" x2="6.24116" y2="4.11125" gradientUnits="userSpaceOnUse">
<stop stop-color="#957414"/>
<stop offset="1" stop-color="#FFD456"/>
</linearGradient>
<linearGradient id="paint4_linear_505_552" x1="3.98895" y1="7.15629" x2="4.40184" y2="7.15629" gradientUnits="userSpaceOnUse">
<stop stop-color="#957414"/>
<stop offset="1" stop-color="#FFD456"/>
</linearGradient>
<linearGradient id="paint5_linear_505_552" x1="7.89655" y1="7.1932" x2="12.9076" y2="7.1932" gradientUnits="userSpaceOnUse">
<stop stop-color="#957414"/>
<stop offset="1" stop-color="#FFD456"/>
</linearGradient>
<linearGradient id="paint6_linear_505_552" x1="4.0338" y1="8.26671" x2="6.05122" y2="8.26671" gradientUnits="userSpaceOnUse">
<stop stop-color="#957414"/>
<stop offset="1" stop-color="#FFD456"/>
</linearGradient>
<linearGradient id="paint7_linear_505_552" x1="8.99208" y1="5.62669" x2="11.6756" y2="5.62669" gradientUnits="userSpaceOnUse">
<stop stop-color="#957414"/>
<stop offset="1" stop-color="#FFD456"/>
</linearGradient>
<linearGradient id="paint8_linear_505_552" x1="4.38341" y1="1.80407" x2="8.57112" y2="1.80407" gradientUnits="userSpaceOnUse">
<stop stop-color="#957414"/>
<stop offset="1" stop-color="#FFD456"/>
</linearGradient>
<linearGradient id="paint9_linear_505_552" x1="4.38341" y1="3.99971" x2="4.53709" y2="3.99971" gradientUnits="userSpaceOnUse">
<stop stop-color="#957414"/>
<stop offset="1" stop-color="#FFD456"/>
</linearGradient>
<linearGradient id="paint10_linear_505_552" x1="5.08457" y1="6.73888" x2="6.43314" y2="6.73888" gradientUnits="userSpaceOnUse">
<stop stop-color="#957414"/>
<stop offset="1" stop-color="#FFD456"/>
</linearGradient>
<linearGradient id="paint11_linear_505_552" x1="7.4904" y1="8.81089" x2="8.60152" y2="8.81089" gradientUnits="userSpaceOnUse">
<stop stop-color="#957414"/>
<stop offset="1" stop-color="#FFD456"/>
</linearGradient>
<linearGradient id="paint12_linear_505_552" x1="8.99208" y1="3.30316" x2="14.4625" y2="3.30316" gradientUnits="userSpaceOnUse">
<stop stop-color="#957414"/>
<stop offset="1" stop-color="#FFD456"/>
</linearGradient>
<linearGradient id="paint13_linear_505_552" x1="7.76651" y1="4.59822" x2="12.9076" y2="4.59822" gradientUnits="userSpaceOnUse">
<stop stop-color="#957414"/>
<stop offset="1" stop-color="#FFD456"/>
</linearGradient>
<linearGradient id="paint14_linear_505_552" x1="5.0614" y1="3.15314" x2="6.05121" y2="3.15314" gradientUnits="userSpaceOnUse">
<stop stop-color="#957414"/>
<stop offset="1" stop-color="#FFD456"/>
</linearGradient>
<linearGradient id="paint15_linear_505_552" x1="6.00224" y1="8.03321" x2="7.89645" y2="8.03321" gradientUnits="userSpaceOnUse">
<stop stop-color="#957414"/>
<stop offset="1" stop-color="#FFD456"/>
</linearGradient>
<linearGradient id="paint16_linear_505_552" x1="3.70554" y1="3.03982" x2="5.06146" y2="3.03982" gradientUnits="userSpaceOnUse">
<stop stop-color="#957414"/>
<stop offset="1" stop-color="#FFD456"/>
</linearGradient>
<linearGradient id="paint17_linear_505_552" x1="8.24544" y1="2.36654" x2="9.25048" y2="2.36654" gradientUnits="userSpaceOnUse">
<stop stop-color="#957414"/>
<stop offset="1" stop-color="#FFD456"/>
</linearGradient>
<linearGradient id="paint18_linear_505_552" x1="6.00224" y1="3.29772" x2="7.76643" y2="3.29772" gradientUnits="userSpaceOnUse">
<stop stop-color="#957414"/>
<stop offset="1" stop-color="#FFD456"/>
</linearGradient>
<linearGradient id="paint19_linear_505_552" x1="6.37789" y1="3.29775" x2="7.39109" y2="3.29775" gradientUnits="userSpaceOnUse">
<stop stop-color="#957414"/>
<stop offset="1" stop-color="#FFD456"/>
</linearGradient>
<linearGradient id="paint20_linear_505_552" x1="3.6421" y1="5.26987" x2="6.00225" y2="5.26987" gradientUnits="userSpaceOnUse">
<stop stop-color="#957414"/>
<stop offset="1" stop-color="#FFD456"/>
</linearGradient>
<linearGradient id="paint21_linear_505_552" x1="12.5801" y1="6.12601" x2="13.9667" y2="6.12601" gradientUnits="userSpaceOnUse">
<stop stop-color="#957414"/>
<stop offset="1" stop-color="#FFD456"/>
</linearGradient>
<linearGradient id="paint22_linear_505_552" x1="1.66166" y1="3.2344" x2="3.68289" y2="3.2344" gradientUnits="userSpaceOnUse">
<stop stop-color="#957414"/>
<stop offset="1" stop-color="#FFD456"/>
</linearGradient>
<linearGradient id="paint23_linear_505_552" x1="9.16572" y1="1.84912" x2="11.6167" y2="1.84912" gradientUnits="userSpaceOnUse">
<stop stop-color="#957414"/>
<stop offset="1" stop-color="#FFD456"/>
</linearGradient>
<linearGradient id="paint24_linear_505_552" x1="13.7564" y1="5.26976" x2="14.8409" y2="5.26976" gradientUnits="userSpaceOnUse">
<stop stop-color="#957414"/>
<stop offset="1" stop-color="#FFD456"/>
</linearGradient>
<linearGradient id="paint25_linear_505_552" x1="13.5936" y1="6.60951" x2="14.245" y2="6.60951" gradientUnits="userSpaceOnUse">
<stop stop-color="#957414"/>
<stop offset="1" stop-color="#FFD456"/>
</linearGradient>
<linearGradient id="paint26_linear_505_552" x1="0" y1="4.96294" x2="16.0704" y2="4.96294" gradientUnits="userSpaceOnUse">
<stop stop-color="#594B21"/>
<stop offset="1" stop-color="#FFD456"/>
</linearGradient>
<linearGradient id="paint27_linear_505_552" x1="1.19641" y1="4.96306" x2="14.8741" y2="4.96306" gradientUnits="userSpaceOnUse">
<stop stop-color="#957414"/>
<stop offset="1" stop-color="#FFD456"/>
</linearGradient>
<linearGradient id="paint28_linear_505_552" x1="7.4904" y1="2.71119" x2="8.2996" y2="2.71119" gradientUnits="userSpaceOnUse">
<stop stop-color="#957414"/>
<stop offset="1" stop-color="#FFD456"/>
</linearGradient>
<linearGradient id="paint29_linear_505_552" x1="5.18716" y1="4.11125" x2="6.24116" y2="4.11125" gradientUnits="userSpaceOnUse">
<stop stop-color="#957414"/>
<stop offset="1" stop-color="#FFD456"/>
</linearGradient>
<linearGradient id="paint30_linear_505_552" x1="3.98895" y1="7.15629" x2="4.40184" y2="7.15629" gradientUnits="userSpaceOnUse">
<stop stop-color="#957414"/>
<stop offset="1" stop-color="#FFD456"/>
</linearGradient>
<linearGradient id="paint31_linear_505_552" x1="7.89655" y1="7.1932" x2="12.9076" y2="7.1932" gradientUnits="userSpaceOnUse">
<stop stop-color="#957414"/>
<stop offset="1" stop-color="#FFD456"/>
</linearGradient>
<linearGradient id="paint32_linear_505_552" x1="4.0338" y1="8.26671" x2="6.05122" y2="8.26671" gradientUnits="userSpaceOnUse">
<stop stop-color="#957414"/>
<stop offset="1" stop-color="#FFD456"/>
</linearGradient>
<linearGradient id="paint33_linear_505_552" x1="8.99208" y1="5.62669" x2="11.6756" y2="5.62669" gradientUnits="userSpaceOnUse">
<stop stop-color="#957414"/>
<stop offset="1" stop-color="#FFD456"/>
</linearGradient>
<linearGradient id="paint34_linear_505_552" x1="4.38341" y1="1.80407" x2="8.57112" y2="1.80407" gradientUnits="userSpaceOnUse">
<stop stop-color="#957414"/>
<stop offset="1" stop-color="#FFD456"/>
</linearGradient>
<linearGradient id="paint35_linear_505_552" x1="4.38341" y1="3.99971" x2="4.53709" y2="3.99971" gradientUnits="userSpaceOnUse">
<stop stop-color="#957414"/>
<stop offset="1" stop-color="#FFD456"/>
</linearGradient>
<linearGradient id="paint36_linear_505_552" x1="5.08457" y1="6.73888" x2="6.43314" y2="6.73888" gradientUnits="userSpaceOnUse">
<stop stop-color="#957414"/>
<stop offset="1" stop-color="#FFD456"/>
</linearGradient>
<linearGradient id="paint37_linear_505_552" x1="7.4904" y1="8.81089" x2="8.60152" y2="8.81089" gradientUnits="userSpaceOnUse">
<stop stop-color="#957414"/>
<stop offset="1" stop-color="#FFD456"/>
</linearGradient>
<linearGradient id="paint38_linear_505_552" x1="8.99208" y1="3.30316" x2="14.4625" y2="3.30316" gradientUnits="userSpaceOnUse">
<stop stop-color="#957414"/>
<stop offset="1" stop-color="#FFD456"/>
</linearGradient>
<linearGradient id="paint39_linear_505_552" x1="7.76651" y1="4.59822" x2="12.9076" y2="4.59822" gradientUnits="userSpaceOnUse">
<stop stop-color="#957414"/>
<stop offset="1" stop-color="#FFD456"/>
</linearGradient>
<linearGradient id="paint40_linear_505_552" x1="5.0614" y1="3.15314" x2="6.05121" y2="3.15314" gradientUnits="userSpaceOnUse">
<stop stop-color="#957414"/>
<stop offset="1" stop-color="#FFD456"/>
</linearGradient>
<linearGradient id="paint41_linear_505_552" x1="6.00224" y1="8.03321" x2="7.89645" y2="8.03321" gradientUnits="userSpaceOnUse">
<stop stop-color="#957414"/>
<stop offset="1" stop-color="#FFD456"/>
</linearGradient>
<linearGradient id="paint42_linear_505_552" x1="3.70554" y1="3.03982" x2="5.06146" y2="3.03982" gradientUnits="userSpaceOnUse">
<stop stop-color="#957414"/>
<stop offset="1" stop-color="#FFD456"/>
</linearGradient>
<linearGradient id="paint43_linear_505_552" x1="8.24544" y1="2.36654" x2="9.25048" y2="2.36654" gradientUnits="userSpaceOnUse">
<stop stop-color="#957414"/>
<stop offset="1" stop-color="#FFD456"/>
</linearGradient>
<linearGradient id="paint44_linear_505_552" x1="6.00224" y1="3.29772" x2="7.76643" y2="3.29772" gradientUnits="userSpaceOnUse">
<stop stop-color="#957414"/>
<stop offset="1" stop-color="#FFD456"/>
</linearGradient>
<linearGradient id="paint45_linear_505_552" x1="6.37789" y1="3.29775" x2="7.39109" y2="3.29775" gradientUnits="userSpaceOnUse">
<stop stop-color="#957414"/>
<stop offset="1" stop-color="#FFD456"/>
</linearGradient>
<linearGradient id="paint46_linear_505_552" x1="3.6421" y1="5.26987" x2="6.00225" y2="5.26987" gradientUnits="userSpaceOnUse">
<stop stop-color="#957414"/>
<stop offset="1" stop-color="#FFD456"/>
</linearGradient>
<linearGradient id="paint47_linear_505_552" x1="12.5801" y1="6.12601" x2="13.9667" y2="6.12601" gradientUnits="userSpaceOnUse">
<stop stop-color="#957414"/>
<stop offset="1" stop-color="#FFD456"/>
</linearGradient>
<linearGradient id="paint48_linear_505_552" x1="1.66166" y1="3.2344" x2="3.68289" y2="3.2344" gradientUnits="userSpaceOnUse">
<stop stop-color="#957414"/>
<stop offset="1" stop-color="#FFD456"/>
</linearGradient>
<linearGradient id="paint49_linear_505_552" x1="9.16572" y1="1.84912" x2="11.6167" y2="1.84912" gradientUnits="userSpaceOnUse">
<stop stop-color="#957414"/>
<stop offset="1" stop-color="#FFD456"/>
</linearGradient>
<linearGradient id="paint50_linear_505_552" x1="13.7564" y1="5.26976" x2="14.8409" y2="5.26976" gradientUnits="userSpaceOnUse">
<stop stop-color="#957414"/>
<stop offset="1" stop-color="#FFD456"/>
</linearGradient>
<linearGradient id="paint51_linear_505_552" x1="13.5936" y1="6.60951" x2="14.245" y2="6.60951" gradientUnits="userSpaceOnUse">
<stop stop-color="#957414"/>
<stop offset="1" stop-color="#FFD456"/>
</linearGradient>
<linearGradient id="paint52_linear_505_552" x1="0" y1="4.96294" x2="16.0704" y2="4.96294" gradientUnits="userSpaceOnUse">
<stop stop-color="#594B21"/>
<stop offset="1" stop-color="#FFD456"/>
</linearGradient>
<radialGradient id="paint53_radial_505_552" cx="0" cy="0" r="1" gradientUnits="userSpaceOnUse" gradientTransform="translate(33.5728 6.51895) scale(36.8318 22.749)">
<stop stop-color="#DDB84A"/>
<stop offset="0.590909" stop-color="#A9861E"/>
<stop offset="1" stop-color="#BC941F"/>
</radialGradient>
<radialGradient id="paint54_radial_505_552" cx="0" cy="0" r="1" gradientUnits="userSpaceOnUse" gradientTransform="translate(33.5727 6.51895) scale(36.8318 22.749)">
<stop stop-color="#DDB84A"/>
<stop offset="0.590909" stop-color="#A9861E"/>
<stop offset="1" stop-color="#BC941F"/>
</radialGradient>
<radialGradient id="paint55_radial_505_552" cx="0" cy="0" r="1" gradientUnits="userSpaceOnUse" gradientTransform="translate(33.5727 6.51872) scale(36.8318 22.749)">
<stop stop-color="#DDB84A"/>
<stop offset="0.590909" stop-color="#A9861E"/>
<stop offset="1" stop-color="#BC941F"/>
</radialGradient>
<radialGradient id="paint56_radial_505_552" cx="0" cy="0" r="1" gradientUnits="userSpaceOnUse" gradientTransform="translate(33.5727 6.51872) scale(36.8318 22.749)">
<stop stop-color="#DDB84A"/>
<stop offset="0.590909" stop-color="#A9861E"/>
<stop offset="1" stop-color="#BC941F"/>
</radialGradient>
<radialGradient id="paint57_radial_505_552" cx="0" cy="0" r="1" gradientUnits="userSpaceOnUse" gradientTransform="translate(33.5727 6.51872) scale(36.8318 22.749)">
<stop stop-color="#DDB84A"/>
<stop offset="0.590909" stop-color="#A9861E"/>
<stop offset="1" stop-color="#BC941F"/>
</radialGradient>
<radialGradient id="paint58_radial_505_552" cx="0" cy="0" r="1" gradientUnits="userSpaceOnUse" gradientTransform="translate(33.5727 6.51872) scale(36.8318 22.749)">
<stop stop-color="#DDB84A"/>
<stop offset="0.590909" stop-color="#A9861E"/>
<stop offset="1" stop-color="#BC941F"/>
</radialGradient>
<radialGradient id="paint59_radial_505_552" cx="0" cy="0" r="1" gradientUnits="userSpaceOnUse" gradientTransform="translate(33.5727 6.51872) scale(36.8318 22.749)">
<stop stop-color="#DDB84A"/>
<stop offset="0.590909" stop-color="#A9861E"/>
<stop offset="1" stop-color="#BC941F"/>
</radialGradient>
<radialGradient id="paint60_radial_505_552" cx="0" cy="0" r="1" gradientUnits="userSpaceOnUse" gradientTransform="translate(33.5727 6.51872) scale(36.8318 22.749)">
<stop stop-color="#DDB84A"/>
<stop offset="0.590909" stop-color="#A9861E"/>
<stop offset="1" stop-color="#BC941F"/>
</radialGradient>
<radialGradient id="paint61_radial_505_552" cx="0" cy="0" r="1" gradientUnits="userSpaceOnUse" gradientTransform="translate(33.5727 6.51872) scale(36.8318 22.749)">
<stop stop-color="#DDB84A"/>
<stop offset="0.590909" stop-color="#A9861E"/>
<stop offset="1" stop-color="#BC941F"/>
</radialGradient>
</defs>
</svg>
