<svg width="84" height="91" viewBox="0 0 84 91" fill="none" xmlns="http://www.w3.org/2000/svg">
<path d="M41.6667 40.9107C47.192 40.9107 52.4911 43.3025 56.3981 47.56C60.3051 51.8174 62.5 57.5918 62.5 63.6128V90.8553H20.8333V63.6128C20.8333 57.5918 23.0283 51.8174 26.9353 47.56C30.8423 43.3025 36.1413 40.9107 41.6667 40.9107ZM13.7 54.5592C13.0369 56.9964 12.6452 59.5117 12.5333 62.0509L12.5 63.6128V90.8553H3.80487e-07V70.4234C-0.00082003 66.5076 1.32512 62.7294 3.72348 59.8134C6.12184 56.8974 9.42374 55.049 12.9958 54.6227L13.7042 54.5592H13.7ZM69.6333 54.5592C73.3413 54.8055 76.8233 56.584 79.3692 59.532C81.915 62.48 83.3328 66.3753 83.3333 70.4234V90.8553H70.8333V63.6128C70.8333 60.4663 70.4167 57.4287 69.6333 54.5592ZM14.5833 27.2894C17.346 27.2894 19.9955 28.4853 21.949 30.614C23.9025 32.7428 25 35.63 25 38.6404C25 41.6509 23.9025 44.5381 21.949 46.6669C19.9955 48.7956 17.346 49.9915 14.5833 49.9915C11.8207 49.9915 9.17114 48.7956 7.21764 46.6669C5.26413 44.5381 4.16667 41.6509 4.16667 38.6404C4.16667 35.63 5.26413 32.7428 7.21764 30.614C9.17114 28.4853 11.8207 27.2894 14.5833 27.2894ZM68.75 27.2894C71.5127 27.2894 74.1622 28.4853 76.1157 30.614C78.0692 32.7428 79.1667 35.63 79.1667 38.6404C79.1667 41.6509 78.0692 44.5381 76.1157 46.6669C74.1622 48.7956 71.5127 49.9915 68.75 49.9915C65.9873 49.9915 63.3378 48.7956 61.3843 46.6669C59.4308 44.5381 58.3333 41.6509 58.3333 38.6404C58.3333 35.63 59.4308 32.7428 61.3843 30.614C63.3378 28.4853 65.9873 27.2894 68.75 27.2894ZM41.6667 0.046875C46.0869 0.046875 50.3262 1.96033 53.4518 5.36631C56.5774 8.77229 58.3333 13.3918 58.3333 18.2086C58.3333 23.0253 56.5774 27.6448 53.4518 31.0508C50.3262 34.4568 46.0869 36.3702 41.6667 36.3702C37.2464 36.3702 33.0072 34.4568 29.8816 31.0508C26.7559 27.6448 25 23.0253 25 18.2086C25 13.3918 26.7559 8.77229 29.8816 5.36631C33.0072 1.96033 37.2464 0.046875 41.6667 0.046875Z" fill="#FF9900"/>
</svg>
