<svg width="80" height="80" viewBox="0 0 80 80" fill="none" xmlns="http://www.w3.org/2000/svg">
<g clip-path="url(#clip0_430_572)">
<path d="M5 6.98837e-05L0 5.00007L11 20.4051C11.4631 21.0538 12.0745 21.5824 12.7834 21.9468C13.4923 22.3113 14.278 22.5009 15.075 22.5001H15.425C16.0824 22.4996 16.7334 22.6287 17.3409 22.8801C17.9483 23.1314 18.5002 23.5002 18.965 23.9651L32.34 37.3401L19.255 50.6101C17.017 49.9513 14.6562 49.823 12.36 50.2356C10.0638 50.6481 7.89527 51.59 6.02649 52.9866C4.15772 54.3832 2.6401 56.1961 1.59402 58.2814C0.547931 60.3667 0.00216101 62.6671 0 65.0001C0.00299732 67.1498 0.468019 69.2737 1.36356 71.228C2.2591 73.1823 3.56423 74.9212 5.19053 76.327C6.81683 77.7329 8.72631 78.7727 10.7896 79.3761C12.8529 79.9795 15.0217 80.1324 17.1492 79.8244C19.2768 79.5164 21.3132 78.7547 23.1206 77.5909C24.9281 76.4271 26.4642 74.8884 27.625 73.079C28.7859 71.2697 29.5442 69.232 29.8487 67.104C30.1532 64.976 29.9968 62.8073 29.39 60.7451L42.66 47.6601L47.5 52.5001L45.975 57.0701C45.682 57.9509 45.6399 58.896 45.8537 59.7994C46.0674 60.7028 46.5284 61.5289 47.185 62.1851L63.965 78.9651C64.9026 79.9024 66.1742 80.429 67.5 80.429C68.8258 80.429 70.0974 79.9024 71.035 78.9651L78.965 71.0351C79.9024 70.0974 80.4289 68.8259 80.4289 67.5001C80.4289 66.1742 79.9024 64.9027 78.965 63.9651L62.185 47.1851C61.5288 46.5284 60.7027 46.0674 59.7993 45.8537C58.8959 45.64 57.9509 45.682 57.07 45.9751L52.5 47.5001L47.7 42.7001L61.1 29.4851C63.3229 30.0785 65.6525 30.1534 67.9089 29.7041C70.1654 29.2549 72.2886 28.2934 74.1147 26.8938C75.9409 25.4943 77.4212 23.694 78.4416 21.6319C79.462 19.5698 79.9952 17.3008 80 15.0001C80 13.6551 79.825 12.3501 79.49 11.1151L68.79 21.8201L60 20.0001L58.18 11.2151L68.885 0.51007C66.3385 -0.174624 63.6564 -0.175902 61.1093 0.506365C58.5621 1.18863 56.2398 2.53033 54.3764 4.39622C52.5131 6.2621 51.1745 8.58624 50.4957 11.1343C49.8169 13.6824 49.8218 16.3645 50.51 18.9101L37.31 32.3001L23.965 18.9651C23.0273 18.0276 22.5003 16.756 22.5 15.4301V15.0751C22.5001 14.2789 22.31 13.4942 21.9456 12.7862C21.5812 12.0783 21.053 11.4677 20.405 11.0051L5 6.98837e-05ZM53.23 53.2301C53.4622 52.9973 53.7381 52.8125 54.0418 52.6865C54.3456 52.5605 54.6712 52.4956 55 52.4956C55.3288 52.4956 55.6544 52.5605 55.9582 52.6865C56.2619 52.8125 56.5378 52.9973 56.77 53.2301L71.77 68.2301C72.0024 68.4625 72.1868 68.7385 72.3126 69.0422C72.4384 69.3458 72.5032 69.6713 72.5032 70.0001C72.5032 70.3288 72.4384 70.6543 72.3126 70.958C72.1868 71.2617 72.0024 71.5376 71.77 71.7701C71.5376 72.0025 71.2616 72.1869 70.9579 72.3127C70.6542 72.4385 70.3287 72.5032 70 72.5032C69.6713 72.5032 69.3458 72.4385 69.0421 72.3127C68.7384 72.1869 68.4624 72.0025 68.23 71.7701L53.23 56.7701C52.9972 56.5378 52.8125 56.262 52.6864 55.9582C52.5604 55.6545 52.4955 55.3289 52.4955 55.0001C52.4955 54.6712 52.5604 54.3456 52.6864 54.0419C52.8125 53.7382 52.9972 53.4623 53.23 53.2301ZM15 55.0001L17.355 56.2101L20 56.3401L21.435 58.5651L23.66 60.0001L23.79 62.6451L25 65.0001L23.79 67.3551L23.66 70.0001L21.435 71.4351L20 73.6601L17.355 73.7901L15 75.0001L12.645 73.7901L10 73.6601L8.565 71.4351L6.34 70.0001L6.21 67.3551L5 65.0001L6.21 62.6451L6.34 60.0001L8.565 58.5651L10 56.3401L12.645 56.2101L15 55.0001Z" fill="black"/>
</g>
<defs>
<clipPath id="clip0_430_572">
<rect width="80" height="80" fill="white"/>
</clipPath>
</defs>
</svg>
